<?xml version="1.0" standalone="no"?>
<!DOCTYPE svg PUBLIC "-//W3C//DTD SVG 20010904//EN"
 "http://www.w3.org/TR/2001/REC-SVG-20010904/DTD/svg10.dtd">
<svg version="1.0" xmlns="http://www.w3.org/2000/svg"
 width="225.000000pt" height="225.000000pt" viewBox="0 0 225.000000 225.000000"
 preserveAspectRatio="xMidYMid meet">
<metadata>
Created by potrace 1.14, written by Peter Selinger 2001-2017
</metadata>
<g transform="translate(0.000000,225.000000) scale(0.100000,-0.100000)"
fill="#000000" stroke="none">
<path d="M902 1959 c-149 -25 -300 -140 -366 -278 -178 -373 114 -823 532
-821 37 1 95 7 130 14 65 14 122 8 163 -17 12 -6 62 -64 111 -127 50 -63 96
-118 104 -123 15 -9 194 146 194 168 0 7 -46 56 -101 109 -56 53 -110 113
-120 133 -25 49 -24 106 3 179 32 88 32 272 0 366 -51 146 -161 272 -296 339
-125 61 -231 78 -354 58z m-350 -457 c-4 -148 8 -213 63 -332 27 -58 30 -69
14 -50 -31 36 -85 155 -99 221 -14 62 -9 190 10 252 6 20 12 37 13 37 1 0 0
-58 -1 -128z m184 24 c3 -14 3 -34 -1 -46 -4 -14 2 -38 19 -70 40 -77 32 -130
-20 -130 -73 0 -120 139 -80 235 13 29 20 35 45 35 24 0 32 -5 37 -24z m810
-188 c-4 -34 -18 -95 -32 -136 -13 -41 -24 -87 -24 -103 0 -16 -4 -29 -8 -29
-4 0 -27 20 -51 44 -24 25 -55 47 -68 51 -38 9 -91 -13 -108 -45 -25 -48 -18
-82 26 -143 l40 -57 -48 0 c-26 -1 -75 -7 -108 -15 -85 -21 -191 -18 -183 5 6
17 544 489 557 489 11 1 12 -11 7 -61z m-5 -379 c98 -95 179 -178 179 -184 0
-12 -121 -125 -134 -125 -3 0 -39 42 -79 93 -154 193 -237 308 -237 327 0 11
9 29 20 40 42 42 61 31 251 -151z"/>
<path d="M614 891 c-99 -61 -119 -188 -40 -267 84 -84 218 -62 274 46 58 112
-25 240 -154 240 -30 0 -61 -7 -80 -19z m171 -42 c49 -44 63 -95 41 -154 -24
-61 -66 -90 -131 -90 -65 0 -101 23 -127 82 -27 61 -18 106 32 155 35 35 42
38 93 38 49 0 61 -4 92 -31z"/>
</g>
</svg>
